<svg xmlns="http://www.w3.org/2000/svg" viewBox="0 0 720 405" width="720" height="405">
  <rect width="720" height="405" fill="#0f172a"/>
  <g stroke="#ffffff" stroke-opacity="0.35" stroke-width="1">
    <line x1="0" y1="81" x2="720" y2="81"/>
    <line x1="0" y1="162" x2="720" y2="162"/>
    <line x1="0" y1="243" x2="720" y2="243"/>
    <line x1="0" y1="324" x2="720" y2="324"/>
    <line x1="90" y1="0" x2="90" y2="405"/>
    <line x1="180" y1="0" x2="180" y2="405"/>
    <line x1="270" y1="0" x2="270" y2="405"/>
    <line x1="360" y1="0" x2="360" y2="405"/>
    <line x1="450" y1="0" x2="450" y2="405"/>
    <line x1="540" y1="0" x2="540" y2="405"/>
    <line x1="630" y1="0" x2="630" y2="405"/>
  </g>
  <g fill="none" stroke="#f8fafc" stroke-width="6" stroke-linecap="round">
    <path d="M 110 240 Q 170 200 230 240 T 350 240 T 470 240 T 590 240" stroke-opacity="0.9"/>
    <path d="M 110 280 Q 170 240 230 280 T 350 280 T 470 280 T 590 280" stroke-opacity="0.6"/>
    <path d="M 110 320 Q 170 280 230 320 T 350 320 T 470 320 T 590 320" stroke-opacity="0.35"/>
  </g>
</svg>
