<svg xmlns="http://www.w3.org/2000/svg" viewBox="0 0 720 405" width="720" height="405">
  <rect width="720" height="405" fill="#0f172a"/>
  <g stroke="#ffffff" stroke-opacity="0.35" stroke-width="1">
    <line x1="0" y1="81" x2="720" y2="81"/>
    <line x1="0" y1="162" x2="720" y2="162"/>
    <line x1="0" y1="243" x2="720" y2="243"/>
    <line x1="0" y1="324" x2="720" y2="324"/>
    <line x1="90" y1="0" x2="90" y2="405"/>
    <line x1="180" y1="0" x2="180" y2="405"/>
    <line x1="270" y1="0" x2="270" y2="405"/>
    <line x1="360" y1="0" x2="360" y2="405"/>
    <line x1="450" y1="0" x2="450" y2="405"/>
    <line x1="540" y1="0" x2="540" y2="405"/>
    <line x1="630" y1="0" x2="630" y2="405"/>
  </g>
  <polygon points="330,120 480,120 440,200 290,200" fill="#f8fafc" fill-opacity="0.9"/>
  <polygon points="290,200 440,200 440,290 290,290" fill="#f8fafc" fill-opacity="0.75"/>
  <g fill="none" stroke="#f8fafc" stroke-width="5" stroke-linecap="round">
    <path d="M 90 150 H 260" stroke-opacity="0.85"/>
    <path d="M 90 190 H 250" stroke-opacity="0.6"/>
    <path d="M 90 230 H 265" stroke-opacity="0.4"/>
    <path d="M 470 150 H 630" stroke-opacity="0.85"/>
    <path d="M 460 190 H 630" stroke-opacity="0.6"/>
    <path d="M 465 230 H 630" stroke-opacity="0.4"/>
  </g>
</svg>
